<?xml version="1.0" encoding="utf-8"?>
<!-- Generator: Adobe Illustrator 27.9.0, SVG Export Plug-In . SVG Version: 6.00 Build 0)  -->
<svg version="1.1" id="e-shape" xmlns="http://www.w3.org/2000/svg" xmlns:xlink="http://www.w3.org/1999/xlink" x="0px" y="0px"
	 viewBox="0 0 1117.7 1117.7" style="enable-background:new 0 0 1117.7 1117.7;" xml:space="preserve">
<style type="text/css">
	.st0{}
</style>
<g id="shape">
	<animate attributeName="fill" values="#F89D74;#DBBCD9;#F15E2E;#C690C0;" dur="11s" repeatCount="indefinite" />
	<path class="st0" d="M564.1,0C408.3,0,267.2,63.1,165.2,165.2C63.1,267.3,0,408.3,0,564.1c0,305.8,247.9,553.6,553.7,553.6h564
		v-564C1117.7,247.9,869.8,0,564.1,0z M817.6,613.5H525.3c1.1,26.6,10.8,47.5,29.1,62.6c18.3,15.1,43.1,22.7,74.6,22.7
		c28.7,0,55.1-2.7,79.3-8.2c24.1-5.5,50.3-14.8,78.4-27.9v117.7c-25.7,13.1-52.1,22.2-79.5,27.2c-27.3,5-59.9,7.5-97.9,7.5
		c-78.9,0-140.2-21-183.8-63c-43.6-42-65.5-101.8-65.5-179.4c0-80.1,20.2-141.6,60.7-184.4c40.4-42.8,98.1-64.3,173.2-64.3
		c71.4,0,126.5,18.6,165.4,55.9c38.9,37.2,58.3,90.9,58.3,160.9V613.5z"/>
	<path class="st0" d="M669.1,510.4H528.6c2.2-25.9,9.8-45,22.8-57.1c12.9-12.1,29.1-18.2,48.3-18.2c20.9,0,37.6,6.8,50,20.5
		C662.1,469.2,668.6,487.5,669.1,510.4z"/>
</g>
</svg>
